<?xml version="1.0" standalone="no"?>
<!DOCTYPE svg PUBLIC "-//W3C//DTD SVG 20010904//EN"
 "http://www.w3.org/TR/2001/REC-SVG-20010904/DTD/svg10.dtd">
<svg version="1.0" xmlns="http://www.w3.org/2000/svg"
 width="380.000000pt" height="380.000000pt" viewBox="0 0 380.000000 380.000000"
 preserveAspectRatio="xMidYMid meet">

<g transform="translate(0.000000,380.000000) scale(0.100000,-0.100000)"
fill="#000000" stroke="none">
<path d="M1214 3330 c-38 -15 -73 -74 -94 -155 -18 -70 -56 -372 -48 -380 2
-2 31 -7 65 -10 l61 -7 6 53 c27 266 37 329 56 359 8 12 15 9 45 -20 30 -29
188 -241 215 -289 8 -15 12 -14 42 2 18 10 43 26 56 35 l23 18 -83 119 c-46
66 -111 149 -146 186 -84 90 -137 114 -198 89z"/>
<path d="M2523 3324 c-49 -25 -148 -136 -240 -269 l-82 -119 49 -33 c27 -18
53 -33 57 -33 4 1 43 51 85 113 79 114 163 217 178 217 19 0 47 -150 66 -354
l6 -68 61 7 c34 3 63 8 65 10 9 9 -31 317 -49 387 -27 98 -66 147 -124 154
-26 3 -52 -1 -72 -12z"/>
<path d="M1010 2660 c-492 -136 -911 -256 -930 -267 -19 -10 -36 -26 -38 -36
-8 -40 14 -49 318 -132 74 -21 154 -43 177 -51 23 -7 52 -16 65 -18 19 -4 510
-139 693 -191 28 -8 68 -19 90 -25 22 -6 63 -17 90 -25 28 -9 59 -17 70 -20
11 -2 94 -25 185 -51 91 -25 174 -46 185 -46 11 0 148 36 305 80 354 100 873
242 883 242 4 0 7 -70 7 -155 l0 -155 -31 -43 c-28 -38 -30 -48 -27 -99 3 -42
10 -64 26 -81 12 -13 22 -29 22 -37 0 -8 -23 -114 -50 -237 -28 -123 -50 -238
-50 -256 0 -43 30 -89 76 -118 55 -34 162 -34 216 -1 46 28 78 79 78 121 0 18
-23 135 -52 261 l-51 229 26 31 c49 58 45 150 -8 200 -25 23 -25 24 -25 205
l0 182 213 58 c240 66 304 89 312 116 8 24 0 36 -33 53 -22 11 -1833 518
-1844 515 -2 0 -406 -112 -898 -249z"/>
<path d="M992 1633 c3 -254 4 -270 25 -309 104 -194 581 -330 1035 -294 396
31 680 146 754 305 23 48 24 59 24 308 0 141 -1 257 -2 257 -3 0 -170 -46
-618 -170 -162 -45 -304 -79 -315 -77 -11 3 -217 59 -458 126 -241 66 -440
121 -443 121 -3 0 -4 -120 -2 -267z"/>
<path d="M1680 600 l0 -140 35 0 35 0 0 53 c0 59 11 83 34 74 12 -5 16 -21 16
-67 l0 -60 35 0 35 0 0 78 c0 107 -25 130 -102 97 -16 -6 -18 -1 -18 49 l0 56
-35 0 -35 0 0 -140z"/>
<path d="M2263 733 c-21 -8 -15 -51 7 -58 32 -10 60 4 60 30 0 29 -31 43 -67
28z"/>
<path d="M1060 595 l0 -137 89 4 c103 4 131 19 131 74 0 32 -21 64 -42 64 -6
0 1 11 16 25 31 29 33 45 7 76 -17 21 -29 24 -110 27 l-91 4 0 -137z m125 55
c0 -18 -6 -26 -22 -28 -20 -3 -23 1 -23 28 0 27 3 31 23 28 16 -2 22 -10 22
-28z m10 -110 c0 -20 -6 -26 -27 -28 -25 -3 -28 0 -28 28 0 28 3 31 28 28 21
-2 27 -8 27 -28z"/>
<path d="M2000 700 c0 -28 3 -30 35 -30 l35 0 0 -105 0 -105 40 0 40 0 0 105
0 105 40 0 c38 0 40 2 40 30 l0 30 -115 0 -115 0 0 -30z"/>
<path d="M1573 699 c-23 -7 -33 -16 -33 -29 0 -11 -7 -20 -15 -20 -9 0 -15 -9
-15 -25 0 -16 6 -25 15 -25 11 0 15 -12 15 -50 0 -65 25 -93 78 -88 32 3 37 7
40 31 3 22 -1 27 -17 27 -18 0 -21 6 -21 40 0 33 3 40 20 40 15 0 20 7 20 25
0 18 -5 25 -20 25 -16 0 -20 7 -20 30 0 33 0 33 -47 19z"/>
<path d="M1347 634 c-50 -27 -62 -96 -24 -139 39 -46 147 -47 147 -2 0 20 -4
22 -39 19 -21 -2 -42 1 -45 7 -5 7 11 11 48 11 l56 0 0 35 c0 71 -74 107 -143
69z m77 -49 c4 -11 -1 -15 -19 -15 -24 0 -32 10 -18 23 11 12 31 8 37 -8z"/>
<path d="M2250 555 l0 -95 40 0 40 0 0 95 0 95 -40 0 -40 0 0 -95z"/>
<path d="M2393 643 c-16 -3 -23 -11 -23 -27 0 -22 3 -23 53 -19 38 2 47 1 32
-6 -11 -5 -29 -10 -41 -10 -30 -1 -54 -32 -54 -70 0 -41 36 -61 81 -44 16 6
29 7 29 2 0 -5 16 -9 35 -9 l35 0 0 73 c0 39 -4 77 -8 83 -19 29 -73 40 -139
27z m77 -107 c0 -19 -17 -29 -37 -22 -12 5 -13 9 -3 21 16 19 40 19 40 1z"/>
<path d="M2580 555 l0 -95 35 0 35 0 0 58 c0 64 10 88 34 79 12 -5 16 -21 16
-72 l0 -65 40 0 40 0 0 75 c0 62 -4 79 -20 95 -23 23 -51 25 -83 9 -16 -9 -22
-9 -25 0 -2 6 -19 11 -38 11 l-34 0 0 -95z"/>
</g>
</svg>
